<svg xmlns="http://www.w3.org/2000/svg" xmlns:xlink="http://www.w3.org/1999/xlink" width="1080" zoomAndPan="magnify" viewBox="0 0 810 809.999993" height="1080" preserveAspectRatio="xMidYMid meet" version="1.0"><path fill="#2e3440" d="M 547.277344 709.410156 L 547.320312 709.460938 L 547.277344 709.410156 " fill-opacity="1" fill-rule="nonzero"/><path fill="#3b4252" d="M 222.632812 584.292969 C 246.898438 571.714844 281.734375 440.597656 298.164062 397.433594 C 314.589844 354.269531 334.199219 333.234375 381.613281 273.277344 C 385.871094 267.894531 390.226562 262.871094 394.648438 258.175781 C 395.402344 257.371094 395.273438 256.085938 394.363281 255.472656 C 367.09375 237.097656 349.109375 210.082031 348.042969 201.351562 C 346.3125 187.246094 312.09375 143.441406 287.425781 115.699219 C 262.753906 87.957031 234.332031 82.226562 237.726562 75.789062 C 241.121094 69.339844 284.546875 49.988281 333.761719 67.996094 C 367.714844 80.417969 402.398438 110.671875 438.546875 160.125 C 439.65625 161.640625 442.050781 160.632812 441.746094 158.789062 C 438.984375 141.734375 434.613281 122.074219 430.511719 106.523438 C 422.46875 75.972656 403.105469 60.691406 408.160156 57.105469 C 413.210938 53.523438 453.621094 55.542969 484.046875 88.136719 C 504.269531 109.804688 518.648438 144.308594 527.1875 192.824219 C 527.332031 193.660156 528.042969 194.277344 528.882812 194.296875 C 560.496094 195.335938 613.269531 206.558594 634.707031 210.007812 C 659.324219 213.976562 701.179688 214.464844 731.261719 237.777344 C 761.332031 261.089844 780.488281 314.746094 805.777344 376.550781 C 810.039062 386.949219 792.335938 380.476562 786.464844 379.140625 C 780.597656 377.800781 745.667969 355.035156 729.59375 347.050781 C 713.515625 339.054688 647.84375 326.5625 629.996094 331.742188 C 612.144531 336.933594 594.796875 358.902344 583.441406 381.617188 C 572.085938 404.332031 529.652344 465.019531 490.003906 505.34375 C 450.726562 545.296875 456.023438 621.761719 450.957031 688 C 450.875 689.019531 451.667969 689.894531 452.6875 689.921875 C 463.191406 690.125 514.855469 691.707031 538.804688 703.5625 C 540.734375 704.519531 539.667969 707.441406 537.585938 706.902344 L 537.363281 706.84375 C 527.605469 704.316406 507.84375 708.796875 499 714.132812 C 498.746094 714.289062 498.464844 714.375 498.164062 714.382812 C 489.488281 714.796875 472.894531 717.371094 464.796875 718.691406 C 463.167969 718.960938 462.746094 721.105469 464.148438 721.972656 L 470.382812 725.828125 C 480.664062 732.183594 536.175781 731.460938 542.265625 731.828125 C 546.992188 732.101562 563.304688 732.667969 572.273438 738.917969 C 574.402344 740.402344 572.875 743.714844 570.378906 743.015625 C 569.707031 742.832031 568.992188 742.644531 568.230469 742.476562 C 562.289062 741.121094 554.339844 743.269531 545.132812 752.597656 C 544.800781 752.9375 544.339844 753.132812 543.863281 753.132812 C 521.257812 753.164062 469.496094 759.828125 441.753906 749.441406 C 413.699219 738.929688 393.339844 705.492188 385.519531 703.703125 C 377.695312 701.917969 352.960938 673.246094 344.351562 671.277344 C 335.746094 669.320312 280.121094 671.449219 230.792969 667.609375 C 183.308594 663.917969 81.003906 686.617188 3.199219 709.742188 C 1.246094 710.316406 0 707.710938 1.679688 706.558594 C 39.738281 680.5 200.550781 595.734375 222.632812 584.292969 " fill-opacity="1" fill-rule="nonzero"/><path fill="#2e3440" d="M 547.382812 709.523438 L 547.425781 709.566406 L 547.382812 709.523438 " fill-opacity="1" fill-rule="nonzero"/><path fill="#d8dee9" d="M 179.71875 652.484375 C 179.71875 652.484375 189.234375 657.300781 215.984375 667.253906 C 221.355469 667.15625 226.328125 667.269531 230.796875 667.609375 C 272.03125 670.824219 317.667969 669.871094 336.5625 670.613281 C 340.273438 670.753906 342.949219 670.96875 344.355469 671.296875 C 352.960938 673.253906 377.695312 701.929688 385.519531 703.710938 C 393.347656 705.5 413.707031 738.933594 441.753906 749.441406 C 469.8125 759.957031 522.421875 753.019531 544.605469 753.132812 C 554.035156 743.359375 562.171875 741.105469 568.230469 742.480469 C 569.027344 742.660156 569.785156 742.855469 570.492188 743.058594 C 572.925781 743.738281 574.492188 740.496094 572.425781 739.035156 C 563.492188 732.683594 547.027344 732.117188 542.265625 731.832031 C 536.175781 731.460938 480.664062 732.191406 470.394531 725.828125 C 460.109375 719.476562 460.109375 719.476562 460.109375 719.476562 C 460.109375 719.476562 487.09375 714.828125 498.617188 714.375 C 507.269531 708.933594 527.46875 704.277344 537.371094 706.84375 L 541.121094 707.816406 C 542.589844 708.195312 543.449219 706.207031 542.148438 705.410156 C 517.644531 690.375 450.808594 689.894531 450.808594 689.894531 C 455.359375 632.9375 451.8125 568.054688 475.398438 525.21875 C 479.417969 517.90625 484.226562 511.234375 490.007812 505.351562 C 529.652344 465.019531 572.09375 404.332031 583.441406 381.628906 C 594.796875 358.910156 612.144531 336.933594 630.003906 331.757812 C 635.792969 330.082031 646.582031 330.253906 659.09375 331.539062 C 673.972656 311.304688 676.507812 292.152344 661.394531 283.359375 C 643.960938 273.21875 598.78125 262.921875 583.109375 253.179688 C 567.429688 243.433594 518.566406 238.464844 479.472656 282.636719 C 440.402344 326.796875 428.910156 328.496094 432.246094 313.828125 C 435.59375 299.160156 447.15625 272.800781 442.953125 266.898438 C 438.734375 260.992188 405.566406 287.390625 376.335938 342.429688 C 347.121094 397.492188 334.773438 470.589844 335.976562 478.878906 C 337.160156 487.175781 332.074219 558.222656 339.863281 589.003906 C 347.660156 619.78125 353.769531 660.671875 342.757812 657.5625 C 331.738281 654.425781 276.574219 620.253906 245.148438 625.429688 C 213.722656 630.605469 179.71875 652.484375 179.71875 652.484375 " fill-opacity="1" fill-rule="nonzero"/><path fill="#eceff4" d="M 460.472656 719.410156 C 463.71875 718.851562 487.871094 714.789062 498.609375 714.367188 C 507.261719 708.925781 527.460938 704.269531 537.363281 706.835938 L 541.121094 707.816406 C 542.589844 708.195312 543.449219 706.207031 542.148438 705.402344 C 517.648438 690.375 450.808594 689.886719 450.808594 689.886719 C 455.351562 632.9375 451.804688 568.046875 475.398438 525.207031 C 479.40625 517.894531 484.21875 511.222656 490.007812 505.34375 C 529.648438 465.019531 572.085938 404.324219 583.441406 381.617188 C 594.789062 358.902344 612.136719 336.925781 629.996094 331.753906 C 635.789062 330.074219 646.574219 330.253906 659.089844 331.535156 C 673.964844 311.296875 676.5 292.152344 661.390625 283.359375 C 648.082031 275.609375 618.613281 267.785156 598.449219 260.175781 C 442.328125 261.851562 330.363281 663.652344 460.472656 719.410156 " fill-opacity="1" fill-rule="nonzero"/><path fill="#ebcb8b" d="M 537.105469 251.648438 C 574.234375 239.363281 603.933594 297.585938 607.09375 313.132812 C 608.527344 320.164062 614.953125 328.125 624.351562 333.75 C 626.125 332.902344 627.921875 332.214844 629.71875 331.6875 C 635.511719 330.019531 646.296875 330.191406 658.8125 331.476562 C 673.6875 311.234375 676.226562 292.089844 661.113281 283.296875 C 643.675781 273.148438 598.496094 262.847656 582.828125 253.113281 C 573.382812 247.242188 551.886719 243.101562 527.726562 250.402344 C 522.472656 254.53125 522.59375 256.457031 537.105469 251.648438 Z M 708.976562 250.238281 C 721.226562 264.136719 714.40625 274.417969 707.777344 277.148438 C 701.164062 279.871094 687.582031 257.367188 677.351562 251.152344 C 667.121094 244.933594 655.667969 236.328125 660.722656 234.304688 C 665.769531 232.277344 701.964844 242.285156 708.976562 250.238281 " fill-opacity="1" fill-rule="nonzero"/></svg>