
    <svg xmlns="http://www.w3.org/2000/svg" viewBox="0 0 248.57 248.57">
      <path
        fill="#333"
        d="M87.423 88.968a5.749 5.749 0 01-4.642 6.676l-33.956 6.102a5.749 5.749 0 01-6.676-4.642 5.749 5.749 0 014.642-6.676l33.956-6.102a5.749 5.749 0 016.676 4.642z"
      ></path>
      <path
        fill="#76c2af"
        d="M534.28 489.5c.024 68.641-55.601 124.3-124.24 124.33s-124.3-55.602-124.33-124.24v-.086c-.024-68.641 55.602-124.3 124.24-124.33 68.641-.023 124.3 55.602 124.33 124.24v.086z"
        transform="translate(-285.71 -365.22)"
      ></path>
      <path
        fill="#231F20"
        stroke="#231F20"
        strokeWidth="6"
        d="M410.95 366.73c-2.583 27.364-8.65 40.051-11.059 50.922-1.204 5.436-1.468 10.432.094 16.466s4.943 13.107 11.027 22.808l.846-.518c-6.057-9.659-9.378-16.649-10.901-22.534s-1.247-10.662-.063-16.008c2.369-10.694 8.465-23.569 11.058-51.044l-1.002-.092z"
        transform="translate(-285.71 -365.22)"
      ></path>
      <g fill="#C1BC9D" transform="translate(-285.71 -365.22)">
        <path d="M399.26 504.94c0 22.092-17.909 40-40 40-22.092 0-40-17.908-40-40 0-22.091 17.908-40 40-40 22.091 0 40 17.909 40 40zM501.26 504.94c0 22.092-17.908 40-40 40s-40-17.908-40-40c0-22.091 17.908-40 40-40s40 17.909 40 40z"></path>
        <path d="M356.05 464.94H461.76V524.94H356.05z"></path>
      </g>
      <g fill="#F2F2F2" transform="translate(-285.71 -365.22)">
        <path d="M399.6 496.27c0 22.092-17.909 40-40 40-22.092 0-40-17.908-40-40 0-22.091 17.908-40 40-40 22.091 0 40 17.909 40 40zM501.6 496.27c0 22.092-17.908 40-40 40s-40-17.908-40-40c0-22.091 17.908-40 40-40s40 17.909 40 40z"></path>
        <path d="M356.38 456.27H462.09V516.27H356.38z"></path>
      </g>
      <g fill="#C1BC9D">
        <path
          d="M472.39 478.47c0 5.061-4.104 9.163-9.164 9.163a9.163 9.163 0 010-18.326c5.06 0 9.164 4.102 9.164 9.163zM472.53 516a9.163 9.163 0 11-18.326 0 9.164 9.164 0 1118.326 0zM491.12 497.38a9.163 9.163 0 01-18.326 0 9.163 9.163 0 1118.326 0zM453.72 497.36a9.163 9.163 0 01-9.163 9.164 9.162 9.162 0 01-9.163-9.164 9.163 9.163 0 0118.326 0z"
          transform="translate(-285.71 -365.22)"
        ></path>
      </g>
      <g fill="#141212">
        <path
          d="M472.39 477.22c0 5.061-4.104 9.163-9.164 9.163a9.163 9.163 0 010-18.326c5.06 0 9.164 4.102 9.164 9.163zM472.53 514.76a9.163 9.163 0 11-18.326 0 9.164 9.164 0 1118.326 0zM491.12 496.13a9.163 9.163 0 01-18.326 0 9.163 9.163 0 1118.326 0zM453.72 496.11a9.163 9.163 0 01-9.163 9.164 9.162 9.162 0 01-9.163-9.164 9.163 9.163 0 0118.326 0z"
          transform="translate(-285.71 -365.22)"
        ></path>
      </g>
      <path
        fill="#333"
        d="M472.39 474.85a9.164 9.164 0 11-18.327-.001 9.164 9.164 0 0118.327.001zM472.53 512.38a9.163 9.163 0 11-18.326 0 9.164 9.164 0 1118.326 0zM491.12 493.75a9.163 9.163 0 01-18.326 0 9.163 9.163 0 1118.326 0zM453.72 493.73a9.163 9.163 0 01-9.163 9.164 9.162 9.162 0 01-9.163-9.164 9.163 9.163 0 0118.326 0z"
        transform="translate(-285.71 -365.22)"
      ></path>
      <g fill="#C1BC9D">
        <path
          d="M383.75 502.13a6.875 6.875 0 01-6.875 6.875h-36.25a6.875 6.875 0 110-13.75h36.25a6.875 6.875 0 016.875 6.875z"
          transform="translate(-285.71 -365.22)"
        ></path>
        <path
          d="M358.62 477.13a6.875 6.875 0 016.875 6.875v36.25a6.875 6.875 0 11-13.75 0v-36.25a6.875 6.875 0 016.875-6.875z"
          transform="translate(-285.71 -365.22)"
        ></path>
      </g>
      <g fill="#141212">
        <path
          d="M383.75 499.26a6.875 6.875 0 01-6.875 6.875h-36.25a6.875 6.875 0 110-13.75h36.25a6.875 6.875 0 016.875 6.875z"
          transform="translate(-285.71 -365.22)"
        ></path>
        <path
          d="M358.62 474.26a6.875 6.875 0 016.875 6.875v36.25a6.875 6.875 0 11-13.75 0v-36.25a6.875 6.875 0 016.875-6.875z"
          transform="translate(-285.71 -365.22)"
        ></path>
      </g>
      <g fill="#333">
        <path
          d="M383.75 495.76a6.875 6.875 0 01-6.875 6.875h-36.25a6.875 6.875 0 110-13.75h36.25a6.875 6.875 0 016.875 6.875z"
          transform="translate(-285.71 -365.22)"
        ></path>
        <path
          d="M358.62 470.76a6.875 6.875 0 016.875 6.875v36.25a6.875 6.875 0 11-13.75 0v-36.25a6.875 6.875 0 016.875-6.875z"
          transform="translate(-285.71 -365.22)"
        ></path>
      </g>
    </svg>